<svg width="36" height="36" viewBox="0 0 36 36" fill="none" xmlns="http://www.w3.org/2000/svg">
<rect width="36" height="36" fill="#1E1E1E"/>
<g id="Desktop - 1" clip-path="url(#clip0_0_1)">
<rect width="1440" height="6500" transform="translate(-206 -4095)" fill="#ECECEC"/>
<g id="Team Members V1" clip-path="url(#clip1_0_1)">
<rect width="1440" height="1592" transform="translate(-208 -737)" fill="white"/>
<g id="Wrapper">
<rect id="Container" x="-208" y="-737" width="1440" height="1592" fill="#ECECEC"/>
<g id="Members">
<g id="Member Card">
<rect id="Rectangle 647" x="-97.5001" y="-442.5" width="387" height="534" rx="23.5" fill="white" stroke="#D4D2E3"/>
<g id="Social Media Container">
<g id="Social Media Icon Square/Facebook">
<rect id="Social Media Icon" x="-0.00012207" width="36" height="36" rx="8" fill="#007E85" fill-opacity="0.1"/>
<path id="Facebook" d="M19.4637 27V18.7894H22.3583L22.7917 15.5895H19.4636V13.5465C19.4636 12.6201 19.7338 11.9888 21.1292 11.9888L22.9089 11.988V9.12607C22.6011 9.08715 21.5446 9 20.3156 9C17.7496 9 15.9928 10.4912 15.9928 13.2297V15.5895H13.0907V18.7894H15.9928V26.9999H19.4637V27Z" fill="#00A3FF"/>
</g>
</g>
</g>
</g>
</g>
</g>
</g>
<defs>
<clipPath id="clip0_0_1">
<rect width="1440" height="6500" fill="white" transform="translate(-206 -4095)"/>
</clipPath>
<clipPath id="clip1_0_1">
<rect width="1440" height="1592" fill="white" transform="translate(-208 -737)"/>
</clipPath>
</defs>
</svg>
